<svg width="24" height="24" viewBox="0 0 24 24" fill="none" xmlns="http://www.w3.org/2000/svg">
<path d="M1.80764 19.6337L2.8628 21.4638C3.08204 21.8491 3.39764 22.152 3.76838 22.3726L7.55325 19.6891L7.56014 15.8365L3.7831 14.1348L3.83795e-06 15.8229C-0.000746162 16.249 0.108426 16.6753 0.327707 17.0606L1.80764 19.6337Z" fill="#0066DD"/>
<path d="M12.0137 8.14736L12.2112 3.12873L8.24536 1.59766C7.87383 1.81694 7.55714 2.11877 7.3365 2.50323L0.332109 14.587C0.111516 14.9715 0.00075 15.3974 0 15.8235L7.56014 15.837L12.0137 8.14736Z" fill="#00AD3C"/>
<path d="M12.0145 8.14694L15.6475 6.19253L15.8062 1.61074C15.4355 1.39014 15.0095 1.27943 14.5697 1.27863L9.48383 1.26954C9.04395 1.26874 8.61762 1.39169 8.24609 1.59724L12.0145 8.14694Z" fill="#00831E"/>
<path d="M16.439 15.8528L7.5593 15.8369L3.76758 22.3731C4.13831 22.5937 4.56427 22.7044 5.00409 22.7052L18.9697 22.7301C19.4096 22.7309 19.8359 22.608 20.2074 22.4024L20.2222 18.0121L16.439 15.8528Z" fill="#0084FF"/>
<path d="M20.2077 22.4018C20.5793 22.1825 20.8959 21.8807 21.1165 21.4963L21.5578 20.741L23.6674 17.1022C23.888 16.7177 23.9987 16.2918 23.9995 15.8657L19.6298 13.5664L16.4531 15.8522L20.2077 22.4018Z" fill="#FF4131"/>
<path d="M20.1917 8.57359L16.7111 2.51921C16.4918 2.1339 16.1762 1.83095 15.8054 1.61035L12.0137 8.14655L16.4398 15.8521L23.9862 15.8656C23.9869 15.4395 23.8777 15.0132 23.6585 14.6279L20.1917 8.57359Z" fill="#FFBA00"/>
</svg>
