<svg width="60" height="60" viewBox="0 0 60 60" fill="none" xmlns="http://www.w3.org/2000/svg">
<path d="M10.06 4.1925C6.8625 4.42 4.42 6.8625 4.1925 10.06C3.9625 13.2538 3.75 17.96 3.75 24.375C3.75 30.7913 3.96375 35.4962 4.1925 38.6912C4.42 41.8875 6.8625 44.3288 10.06 44.5575C11.4638 44.6575 13.16 44.7563 15.1663 44.8338C15.0516 41.7655 14.9962 38.6954 15 35.625C15 29.2087 15.2137 24.5037 15.4425 21.31C15.67 18.1125 18.1125 15.67 21.31 15.4425C24.5025 15.2125 29.2087 15 35.625 15C39.22 15 42.2775 15.0675 44.8338 15.1663C44.7563 13.16 44.6587 11.4638 44.5588 10.06C44.33 6.8625 41.8875 4.42 38.69 4.1925C35.4963 3.9625 30.79 3.75 24.375 3.75C17.9587 3.75 13.2538 3.96375 10.06 4.1925Z" fill="white"/>
<path d="M15.4425 21.3088C15.67 18.1125 18.1125 15.6713 21.31 15.4425C24.5025 15.2125 29.2087 15 35.625 15C42.0413 15 46.7463 15.2138 49.94 15.4425C53.1375 15.67 55.58 18.1125 55.8075 21.31C56.0363 24.5038 56.25 29.21 56.25 35.625C56.25 42.0413 56.0363 46.7462 55.8075 49.9412C55.58 53.1375 53.1375 55.5788 49.94 55.8075C46.7463 56.0363 42.04 56.25 35.625 56.25C29.2087 56.25 24.5038 56.0363 21.3088 55.8075C18.1125 55.58 15.6713 53.1375 15.4425 49.94C15.2125 46.7475 15 42.0413 15 35.625C15 29.2087 15.2138 24.5038 15.4425 21.3088Z" fill="#8FBFFA"/>
<path d="M40.0001 27.5C40.0001 28.4946 40.3952 29.4484 41.0985 30.1517C41.8017 30.8549 42.7556 31.25 43.7501 31.25C44.7447 31.25 45.6985 30.8549 46.4018 30.1517C47.105 29.4484 47.5001 28.4946 47.5001 27.5C47.5001 26.5054 47.105 25.5516 46.4018 24.8483C45.6985 24.1451 44.7447 23.75 43.7501 23.75C42.7556 23.75 41.8017 24.1451 41.0985 24.8483C40.3952 25.5516 40.0001 26.5054 40.0001 27.5ZM56.0576 45.4862C55.9839 47.2113 55.8976 48.6912 55.8076 49.94C55.5801 53.1375 53.1376 55.58 49.9401 55.8075C46.7464 56.0363 42.0401 56.25 35.6251 56.25C29.2089 56.25 24.5039 56.0363 21.3089 55.8075C18.1126 55.58 15.6714 53.1375 15.4426 49.94C15.314 48.1085 15.2169 46.2749 15.1514 44.44C19.5826 40.2812 22.7114 37.8925 24.7364 36.5413C26.5364 35.3412 28.7426 35.5387 30.4151 36.9075C32.0876 38.2762 34.6376 40.5 38.3376 44.0387C40.8251 41.9025 42.7314 40.49 44.1189 39.5637C45.9189 38.3637 48.1251 38.5637 49.7976 39.9312C51.2076 41.0837 53.2389 42.8438 56.0576 45.4862Z" fill="white"/>
<path d="M44.3425 8.75C43.6525 6.22 41.48 4.3925 38.7513 4.19625C35.5563 3.96625 30.8313 3.75 24.375 3.75C17.9575 3.75 13.2525 3.96375 10.0588 4.1925C6.8625 4.42 4.41875 6.8625 4.19125 10.06C3.9625 13.2538 3.75 17.96 3.75 24.375C3.75 30.8312 3.9675 35.555 4.19625 38.75C4.3925 41.4788 6.22125 43.6525 8.75 44.3412" stroke="#2859C5" stroke-width="1.5" stroke-linecap="round" stroke-linejoin="round"/>
<path d="M15.4425 21.3088C15.67 18.1125 18.1125 15.6713 21.31 15.4425C24.5025 15.2125 29.2088 15 35.625 15C42.0412 15 46.7462 15.2138 49.94 15.4425C53.1375 15.67 55.58 18.1125 55.8075 21.31C56.0362 24.5038 56.25 29.21 56.25 35.625C56.25 42.0412 56.0362 46.7462 55.8075 49.9412C55.58 53.1375 53.1375 55.5787 49.94 55.8075C46.7462 56.0362 42.04 56.25 35.625 56.25C29.2088 56.25 24.5038 56.0362 21.3088 55.8075C18.1125 55.58 15.6713 53.1375 15.4425 49.94C15.2125 46.7475 15 42.0412 15 35.625C15 29.2088 15.2138 24.5038 15.4425 21.3088Z" stroke="#2859C5" stroke-width="1.5" stroke-linecap="round" stroke-linejoin="round"/>
<path d="M56.0576 45.4862C53.2389 42.8437 51.2076 41.0837 49.7976 39.9312C48.1251 38.5625 45.9201 38.3638 44.1189 39.565C42.7314 40.49 40.8264 41.9025 38.3376 44.0387C34.6376 40.5 32.0876 38.2762 30.4151 36.9075C28.7426 35.5387 26.5376 35.3412 24.7364 36.5412C22.7114 37.8912 19.5826 40.2812 15.1514 44.4387M40.0001 27.5C40.0001 28.4946 40.3952 29.4484 41.0985 30.1517C41.8017 30.8549 42.7556 31.25 43.7501 31.25C44.7447 31.25 45.6985 30.8549 46.4018 30.1517C47.105 29.4484 47.5001 28.4946 47.5001 27.5C47.5001 26.5054 47.105 25.5516 46.4018 24.8483C45.6985 24.1451 44.7447 23.75 43.7501 23.75C42.7556 23.75 41.8017 24.1451 41.0985 24.8483C40.3952 25.5516 40.0001 26.5054 40.0001 27.5Z" stroke="#2859C5" stroke-width="1.5" stroke-linecap="round" stroke-linejoin="round"/>
</svg>
